<?xml version="1.0" encoding="UTF-8" standalone="no"?>
<!DOCTYPE svg PUBLIC "-//W3C//DTD SVG 1.1//EN" "http://www.w3.org/Graphics/SVG/1.1/DTD/svg11.dtd">
<svg width="100%" height="100%" viewBox="0 0 165 48" version="1.1" xmlns="http://www.w3.org/2000/svg" xmlns:xlink="http://www.w3.org/1999/xlink" xml:space="preserve" xmlns:serif="http://www.serif.com/" style="fill-rule:evenodd;clip-rule:evenodd;stroke-linejoin:round;stroke-miterlimit:2;">
    <g transform="matrix(1,0,0,1,-17.9167,-76.0985)">
        <g id="menu-thin" transform="matrix(0.8,0,0,0.8,20,14.1818)">
            <g transform="matrix(1.09091,0,0,1.09091,-54.5455,-7.27273)">
                <path d="M75,77.613C59.885,77.613 47.613,89.885 47.613,105C47.613,120.115 59.885,132.387 75,132.387C90.115,132.387 102.387,120.115 102.387,105C102.387,89.885 90.115,77.613 75,77.613ZM75,82.387C87.48,82.387 97.613,92.52 97.613,105C97.613,117.48 87.48,127.613 75,127.613C62.52,127.613 52.387,117.48 52.387,105C52.387,92.52 62.52,82.387 75,82.387Z" style="fill:rgb(24,49,83);"/>
            </g>
            <g transform="matrix(1.09091,0,0,1.09091,18.1818,-7.27273)">
                <path d="M75,77.613C59.885,77.613 47.613,89.885 47.613,105C47.613,120.115 59.885,132.387 75,132.387C90.115,132.387 102.387,120.115 102.387,105C102.387,89.885 90.115,77.613 75,77.613ZM75,82.387C87.48,82.387 97.613,92.52 97.613,105C97.613,117.48 87.48,127.613 75,127.613C62.52,127.613 52.387,117.48 52.387,105C52.387,92.52 62.52,82.387 75,82.387Z" style="fill:rgb(24,49,83);"/>
            </g>
            <g transform="matrix(1.09091,0,0,1.09091,90.9091,-7.27273)">
                <path d="M75,77.613C59.885,77.613 47.613,89.885 47.613,105C47.613,120.115 59.885,132.387 75,132.387C90.115,132.387 102.387,120.115 102.387,105C102.387,89.885 90.115,77.613 75,77.613ZM75,82.387C87.48,82.387 97.613,92.52 97.613,105C97.613,117.48 87.48,127.613 75,127.613C62.52,127.613 52.387,117.48 52.387,105C52.387,92.52 62.52,82.387 75,82.387Z" style="fill:rgb(24,49,83);"/>
            </g>
        </g>
    </g>
</svg>
