<?xml version="1.0" encoding="UTF-8" standalone="no"?>
<!DOCTYPE svg PUBLIC "-//W3C//DTD SVG 1.1//EN" "http://www.w3.org/Graphics/SVG/1.1/DTD/svg11.dtd">
<svg width="100%" height="100%" viewBox="0 0 169 52" version="1.1" xmlns="http://www.w3.org/2000/svg" xmlns:xlink="http://www.w3.org/1999/xlink" xml:space="preserve" xmlns:serif="http://www.serif.com/" style="fill-rule:evenodd;clip-rule:evenodd;stroke-linejoin:round;stroke-miterlimit:2;">
    <g transform="matrix(1,0,0,1,-15.8333,-74.0152)">
        <g id="menu-light" transform="matrix(0.8,0,0,0.8,20,14.1818)">
            <g transform="matrix(1.09091,0,0,1.09091,-54.5455,-7.27273)">
                <path d="M75,75.226C58.567,75.226 45.226,88.567 45.226,105C45.226,121.433 58.567,134.774 75,134.774C91.433,134.774 104.774,121.433 104.774,105C104.774,88.567 91.433,75.226 75,75.226ZM75,84.774C86.163,84.774 95.226,93.837 95.226,105C95.226,116.163 86.163,125.226 75,125.226C63.837,125.226 54.774,116.163 54.774,105C54.774,93.837 63.837,84.774 75,84.774Z" style="fill:rgb(24,49,83);"/>
            </g>
            <g transform="matrix(1.09091,0,0,1.09091,18.1818,-7.27273)">
                <path d="M75,75.226C58.567,75.226 45.226,88.567 45.226,105C45.226,121.433 58.567,134.774 75,134.774C91.433,134.774 104.774,121.433 104.774,105C104.774,88.567 91.433,75.226 75,75.226ZM75,84.774C86.163,84.774 95.226,93.837 95.226,105C95.226,116.163 86.163,125.226 75,125.226C63.837,125.226 54.774,116.163 54.774,105C54.774,93.837 63.837,84.774 75,84.774Z" style="fill:rgb(24,49,83);"/>
            </g>
            <g transform="matrix(1.09091,0,0,1.09091,90.9091,-7.27273)">
                <path d="M75,75.226C58.567,75.226 45.226,88.567 45.226,105C45.226,121.433 58.567,134.774 75,134.774C91.433,134.774 104.774,121.433 104.774,105C104.774,88.567 91.433,75.226 75,75.226ZM75,84.774C86.163,84.774 95.226,93.837 95.226,105C95.226,116.163 86.163,125.226 75,125.226C63.837,125.226 54.774,116.163 54.774,105C54.774,93.837 63.837,84.774 75,84.774Z" style="fill:rgb(24,49,83);"/>
            </g>
        </g>
    </g>
</svg>
