<?xml version="1.0" encoding="UTF-8" standalone="no"?>
<!DOCTYPE svg PUBLIC "-//W3C//DTD SVG 1.1//EN" "http://www.w3.org/Graphics/SVG/1.1/DTD/svg11.dtd">
<svg width="100%" height="100%" viewBox="0 0 173 57" version="1.1" xmlns="http://www.w3.org/2000/svg" xmlns:xlink="http://www.w3.org/1999/xlink" xml:space="preserve" xmlns:serif="http://www.serif.com/" style="fill-rule:evenodd;clip-rule:evenodd;stroke-linejoin:round;stroke-miterlimit:2;">
    <g transform="matrix(1,0,0,1,-13.75,-71.9318)">
        <g id="menu-regular" transform="matrix(0.8,0,0,0.8,20,14.1818)">
            <g transform="matrix(1.09091,0,0,1.09091,-54.5455,-7.27273)">
                <path d="M75,72.839C57.25,72.839 42.839,87.25 42.839,105C42.839,122.75 57.25,137.161 75,137.161C92.75,137.161 107.161,122.75 107.161,105C107.161,87.25 92.75,72.839 75,72.839ZM75,87.161C84.845,87.161 92.839,95.155 92.839,105C92.839,114.845 84.845,122.839 75,122.839C65.155,122.839 57.161,114.845 57.161,105C57.161,95.155 65.155,87.161 75,87.161Z" style="fill:rgb(24,49,83);"/>
            </g>
            <g transform="matrix(1.09091,0,0,1.09091,18.1818,-7.27273)">
                <path d="M75,72.839C57.25,72.839 42.839,87.25 42.839,105C42.839,122.75 57.25,137.161 75,137.161C92.75,137.161 107.161,122.75 107.161,105C107.161,87.25 92.75,72.839 75,72.839ZM75,87.161C84.845,87.161 92.839,95.155 92.839,105C92.839,114.845 84.845,122.839 75,122.839C65.155,122.839 57.161,114.845 57.161,105C57.161,95.155 65.155,87.161 75,87.161Z" style="fill:rgb(24,49,83);"/>
            </g>
            <g transform="matrix(1.09091,0,0,1.09091,90.9091,-7.27273)">
                <path d="M75,72.839C57.25,72.839 42.839,87.25 42.839,105C42.839,122.75 57.25,137.161 75,137.161C92.75,137.161 107.161,122.75 107.161,105C107.161,87.25 92.75,72.839 75,72.839ZM75,87.161C84.845,87.161 92.839,95.155 92.839,105C92.839,114.845 84.845,122.839 75,122.839C65.155,122.839 57.161,114.845 57.161,105C57.161,95.155 65.155,87.161 75,87.161Z" style="fill:rgb(24,49,83);"/>
            </g>
        </g>
    </g>
</svg>
