<?xml version="1.0" encoding="UTF-8" standalone="no"?>
<!DOCTYPE svg PUBLIC "-//W3C//DTD SVG 1.1//EN" "http://www.w3.org/Graphics/SVG/1.1/DTD/svg11.dtd">
<svg width="100%" height="100%" viewBox="0 0 169 169" version="1.1" xmlns="http://www.w3.org/2000/svg" xmlns:xlink="http://www.w3.org/1999/xlink" xml:space="preserve" xmlns:serif="http://www.serif.com/" style="fill-rule:evenodd;clip-rule:evenodd;stroke-linejoin:round;stroke-miterlimit:2;">
    <g transform="matrix(1,0,0,1,-15.7853,-15.7853)">
        <path id="x-light" d="M100,65.823L57.088,22.912C47.651,13.474 32.349,13.474 22.912,22.912C22.912,22.912 22.912,22.912 22.912,22.912C13.474,32.349 13.474,47.651 22.912,57.088C22.912,57.088 65.823,100 65.823,100C65.823,100 22.83,142.994 22.83,142.994C13.437,152.386 13.437,167.614 22.83,177.006C22.83,177.007 22.831,177.007 22.831,177.008C32.313,186.49 47.687,186.49 57.169,177.008C57.169,177.008 100,134.177 100,134.177C100,134.177 142.912,177.088 142.912,177.088C152.349,186.526 167.651,186.526 177.088,177.088C177.088,177.088 177.088,177.088 177.088,177.088C186.526,167.651 186.526,152.349 177.088,142.912C177.088,142.912 134.177,100 134.177,100C134.177,100 177.008,57.169 177.008,57.169C186.49,47.687 186.49,32.313 177.008,22.831C177.007,22.831 177.007,22.83 177.006,22.83C167.614,13.437 152.386,13.437 142.994,22.83L100,65.823ZM97.054,74.662C98.681,76.289 101.319,76.289 102.946,74.662L148.886,28.722C155.024,22.584 164.976,22.584 171.114,28.722C171.114,28.722 171.115,28.724 171.115,28.724C177.343,34.951 177.343,45.049 171.115,51.276C171.115,51.276 125.338,97.054 125.338,97.054C123.711,98.681 123.711,101.319 125.338,102.946L171.196,148.804C177.379,154.987 177.379,165.013 171.196,171.196C171.196,171.196 171.196,171.196 171.196,171.196C165.013,177.379 154.987,177.379 148.804,171.196C148.804,171.196 102.946,125.338 102.946,125.338C101.319,123.711 98.681,123.711 97.054,125.338L51.276,171.115C45.049,177.343 34.951,177.343 28.724,171.115C28.724,171.115 28.722,171.114 28.722,171.114C22.584,164.976 22.584,155.024 28.722,148.886C28.722,148.886 74.662,102.946 74.662,102.946C76.289,101.319 76.289,98.681 74.662,97.054L28.804,51.196C22.621,45.013 22.621,34.987 28.804,28.804C28.804,28.804 28.804,28.804 28.804,28.804C34.987,22.621 45.013,22.621 51.196,28.804C51.196,28.804 97.054,74.662 97.054,74.662Z" style="fill:rgb(24,49,83);"/>
    </g>
</svg>
