<?xml version="1.0" encoding="UTF-8" standalone="no"?>
<!DOCTYPE svg PUBLIC "-//W3C//DTD SVG 1.1//EN" "http://www.w3.org/Graphics/SVG/1.1/DTD/svg11.dtd">
<svg width="100%" height="100%" viewBox="0 0 173 173" version="1.1" xmlns="http://www.w3.org/2000/svg" xmlns:xlink="http://www.w3.org/1999/xlink" xml:space="preserve" xmlns:serif="http://www.serif.com/" style="fill-rule:evenodd;clip-rule:evenodd;stroke-linejoin:round;stroke-miterlimit:2;">
    <g transform="matrix(1,0,0,1,-13.702,-13.702)">
        <path id="x-reguler" d="M100,62.877L58.562,21.438C48.31,11.187 31.69,11.187 21.438,21.438C21.438,21.438 21.438,21.438 21.438,21.438C11.187,31.69 11.187,48.31 21.438,58.562C21.438,58.562 62.877,100 62.877,100C62.877,100 21.356,141.52 21.356,141.52C11.15,151.726 11.15,168.274 21.356,178.48C21.357,178.48 21.357,178.48 21.358,178.481C31.654,188.777 48.346,188.777 58.642,178.481C58.642,178.481 100,137.123 100,137.123C100,137.123 141.438,178.562 141.438,178.562C151.69,188.813 168.31,188.813 178.562,178.562C178.562,178.562 178.562,178.562 178.562,178.562C188.813,168.31 188.813,151.69 178.562,141.438C178.562,141.438 137.123,100 137.123,100C137.123,100 178.481,58.642 178.481,58.642C188.777,48.346 188.777,31.654 178.481,21.358C178.48,21.357 178.48,21.357 178.48,21.356C168.274,11.15 151.726,11.15 141.52,21.356L100,62.877ZM95.581,76.135C98.021,78.576 101.979,78.576 104.419,76.135L150.359,30.195C155.684,24.871 164.316,24.871 169.641,30.195C169.641,30.195 169.642,30.197 169.642,30.197C175.056,35.611 175.056,44.389 169.642,49.803C169.642,49.803 123.865,95.581 123.865,95.581C121.424,98.021 121.424,101.979 123.865,104.419L169.723,150.277C175.092,155.647 175.092,164.353 169.723,169.723C169.723,169.723 169.723,169.723 169.723,169.723C164.353,175.092 155.647,175.092 150.277,169.723C150.277,169.723 104.419,123.865 104.419,123.865C101.979,121.424 98.021,121.424 95.581,123.865L49.803,169.642C44.389,175.056 35.611,175.056 30.197,169.642C30.197,169.642 30.195,169.641 30.195,169.641C24.871,164.316 24.871,155.684 30.195,150.359C30.195,150.359 76.135,104.419 76.135,104.419C78.576,101.979 78.576,98.021 76.135,95.581L30.277,49.723C24.908,44.353 24.908,35.647 30.277,30.277C30.277,30.277 30.277,30.277 30.277,30.277C35.647,24.908 44.353,24.908 49.723,30.277C49.723,30.277 95.581,76.135 95.581,76.135Z" style="fill:rgb(24,49,83);"/>
    </g>
</svg>
