<?xml version="1.0" encoding="UTF-8" standalone="no"?>
<!DOCTYPE svg PUBLIC "-//W3C//DTD SVG 1.1//EN" "http://www.w3.org/Graphics/SVG/1.1/DTD/svg11.dtd">
<svg width="100%" height="100%" viewBox="0 0 161 161" version="1.1" xmlns="http://www.w3.org/2000/svg" xmlns:xlink="http://www.w3.org/1999/xlink" xml:space="preserve" xmlns:serif="http://www.serif.com/" style="fill-rule:evenodd;clip-rule:evenodd;stroke-linejoin:round;stroke-miterlimit:2;">
    <g transform="matrix(1,0,0,1,-19.952,-19.952)">
        <path id="x-solid" d="M100,71.716L54.142,25.858C46.332,18.047 33.668,18.047 25.858,25.858C25.858,25.858 25.858,25.858 25.858,25.858C18.047,33.668 18.047,46.332 25.858,54.142L71.716,100L25.776,145.94C18.011,153.705 18.011,166.295 25.776,174.06C25.776,174.061 25.777,174.061 25.777,174.062C33.632,181.917 46.368,181.917 54.223,174.062L100,128.284L145.858,174.142C153.668,181.953 166.332,181.953 174.142,174.142C174.142,174.142 174.142,174.142 174.142,174.142C181.953,166.332 181.953,153.668 174.142,145.858L128.284,100L174.062,54.223C181.917,46.368 181.917,33.632 174.062,25.777C174.061,25.777 174.061,25.776 174.06,25.776C166.295,18.011 153.705,18.011 145.94,25.776L100,71.716Z" style="fill:rgb(24,49,83);"/>
    </g>
</svg>
