<?xml version="1.0" encoding="UTF-8" standalone="no"?>
<!DOCTYPE svg PUBLIC "-//W3C//DTD SVG 1.1//EN" "http://www.w3.org/Graphics/SVG/1.1/DTD/svg11.dtd">
<svg width="100%" height="100%" viewBox="0 0 165 165" version="1.1" xmlns="http://www.w3.org/2000/svg" xmlns:xlink="http://www.w3.org/1999/xlink" xml:space="preserve" xmlns:serif="http://www.serif.com/" style="fill-rule:evenodd;clip-rule:evenodd;stroke-linejoin:round;stroke-miterlimit:2;">
    <g transform="matrix(1,0,0,1,-17.8686,-17.8686)">
        <path id="x-thin" d="M100,68.769L55.615,24.385C46.991,15.761 33.009,15.761 24.385,24.385C24.385,24.385 24.385,24.385 24.385,24.385C15.761,33.009 15.761,46.991 24.385,55.615C24.385,55.615 68.769,100 68.769,100C68.769,100 24.303,144.467 24.303,144.467C15.724,153.046 15.724,166.954 24.303,175.533C24.303,175.534 24.304,175.534 24.304,175.535C32.973,184.203 47.027,184.203 55.696,175.535C55.696,175.535 100,131.231 100,131.231C100,131.231 144.385,175.615 144.385,175.615C153.009,184.239 166.991,184.239 175.615,175.615C175.615,175.615 175.615,175.615 175.615,175.615C184.239,166.991 184.239,153.009 175.615,144.385C175.615,144.385 131.231,100 131.231,100C131.231,100 175.535,55.696 175.535,55.696C184.203,47.027 184.203,32.973 175.535,24.304C175.534,24.304 175.534,24.303 175.533,24.303C166.954,15.724 153.046,15.724 144.467,24.303L100,68.769ZM98.527,73.189C99.34,74.002 100.66,74.002 101.473,73.189L147.413,27.249C154.365,20.297 165.635,20.297 172.587,27.249C172.587,27.249 172.588,27.25 172.588,27.25C179.63,34.292 179.63,45.708 172.588,52.75C172.588,52.75 126.811,98.527 126.811,98.527C125.998,99.34 125.998,100.66 126.811,101.473L172.669,147.331C179.666,154.328 179.666,165.672 172.669,172.669C172.669,172.669 172.669,172.669 172.669,172.669C165.672,179.666 154.328,179.666 147.331,172.669C147.331,172.669 101.473,126.811 101.473,126.811C100.66,125.998 99.34,125.998 98.527,126.811L52.75,172.588C45.708,179.63 34.292,179.63 27.25,172.588C27.25,172.588 27.249,172.587 27.249,172.587C20.297,165.635 20.297,154.365 27.249,147.413C27.249,147.413 73.189,101.473 73.189,101.473C74.002,100.66 74.002,99.34 73.189,98.527L27.331,52.669C20.334,45.672 20.334,34.328 27.331,27.331C27.331,27.331 27.331,27.331 27.331,27.331C34.328,20.334 45.672,20.334 52.669,27.331C52.669,27.331 98.527,73.189 98.527,73.189Z" style="fill:rgb(24,49,83);"/>
    </g>
</svg>
